<?xml version="1.0" standalone="no"?>
<!DOCTYPE svg PUBLIC "-//W3C//DTD SVG 20010904//EN"
 "http://www.w3.org/TR/2001/REC-SVG-20010904/DTD/svg10.dtd">
<svg version="1.0" xmlns="http://www.w3.org/2000/svg"
 width="70.000000pt" height="70.000000pt" viewBox="0 0 70.000000 70.000000"
 preserveAspectRatio="xMidYMid meet">
<metadata>
Created by potrace 1.11, written by Peter Selinger 2001-2013
</metadata>
<g transform="translate(0.000000,70.000000) scale(0.100000,-0.100000)"
fill="#000000" stroke="none">
<path d="M589 676 c-5 -6 -41 -12 -119 -21 -30 -4 -60 -11 -66 -16 -7 -5 -22
-36 -34 -69 -21 -57 -24 -60 -56 -60 -29 0 -36 -5 -49 -36 -20 -48 -19 -51 11
-71 19 -12 30 -14 43 -6 24 15 123 -54 116 -82 -3 -13 5 -27 23 -41 l26 -22
34 26 c31 23 33 29 28 63 -6 36 -3 40 44 80 57 48 57 51 34 165 -15 75 -25
100 -35 90z"/>
<path d="M133 315 c-5 -5 -22 -19 -36 -30 -38 -28 -36 -71 6 -120 26 -30 40
-38 64 -37 26 0 32 -4 38 -26 9 -38 49 -73 88 -79 26 -3 41 2 66 22 29 25 31
31 31 94 0 37 -3 71 -7 75 -4 3 -8 12 -9 19 -1 7 -6 27 -9 45 -5 21 -4 32 4
32 6 0 11 4 11 8 0 12 -236 9 -247 -3z"/>
</g>
</svg>
